<svg xmlns="http://www.w3.org/2000/svg" data-name="Layer 1" viewBox="0 0 100 100" x="0px" y="0px"><defs><style>.cls-1{fill:#010101;}</style></defs><title>Day1</title><g data-name="Shape 98"><path class="cls-1" d="M68.66,9A46.79,46.79,0,0,1,93.14,36.05a45.59,45.59,0,0,1-7.39,42A46.27,46.27,0,0,1,46.58,95.13,46.58,46.58,0,0,1,8.45,68.32,46.22,46.22,0,0,1,14,22.08,45.86,45.86,0,0,1,57.43,5.42,46.4,46.4,0,0,1,68.66,9M31.16,29C30.48,26.45,34,24,33,21.56c-0.7-1.74-3.07-1.93-4.93-1.66a32.86,32.86,0,0,0-8,2.21c-1.71.72-2.13,3-1.57,4.82s1.77,3.26,2.47,5c2.18,5.37-1.1,11.47-.31,17.22,0.1,0.75.76,1.71,1.38,1.28,1.58-1.1,3.84-.14,5.09,1.32s1.93,3.34,3.16,4.82c2.08,2.5,6.35,3.36,8.56,1l3.36-3.65a3.12,3.12,0,0,0,.94-1.54c0.18-1.15-1-2.12-2.17-2.25a11.29,11.29,0,0,0-3.43.53,10.36,10.36,0,0,1-5.47-.39,6.18,6.18,0,0,1-3.91-3.44c-0.65-1.8-.05-3.78.62-5.57a65.55,65.55,0,0,1,3.73-8.14c0.71-1.31-1-2.64-1.35-4.08M79.21,77c-1.59,1.1-3.47,1.77-5,3-2.26,1.83-3.51,4.76-6,6.33s-5.53,1.47-8.42,1.32l-14.59-.75a7.27,7.27,0,0,1-3.69-.86,7.26,7.26,0,0,1-2.16-2.79l-3.29-6.11A0.79,0.79,0,0,0,35,76.67L30.28,78.2c1.46,3.57,3.36,7.1,6.42,9.45,3.52,2.7,8.16,3.5,12.6,3.52A43.17,43.17,0,0,0,82,76.27,41.69,41.69,0,0,0,91,41.59q-1.15,2.25-2.17,4.57a5.08,5.08,0,0,0-.61,2.59,6.56,6.56,0,0,0,.66,1.83,16.17,16.17,0,0,1,.32,11.16A36.66,36.66,0,0,1,84,71.8,19.74,19.74,0,0,1,79.21,77M58.86,16.58a74.32,74.32,0,0,1,7,4.63,8.9,8.9,0,0,1,3.19,3.49,4.69,4.69,0,0,1-6.92,5.7,27.45,27.45,0,0,1-2.71-2.57c-2.39-2.09-5.87-2.37-8.59-4a2.47,2.47,0,0,1-1.23-1.33,7.72,7.72,0,0,1,.24-2.25,3,3,0,0,0-2.06-2.69,8.81,8.81,0,0,0-3.57-.34,3.27,3.27,0,0,0-1.94.5,1.13,1.13,0,0,0-.12,1.74c3.4,2.24,7.27,3.77,10.38,6.4s5.38,6.9,4,10.75A19.37,19.37,0,0,0,55.37,40,9.62,9.62,0,0,1,70.2,38.34c2.17-2.31.85-6,.8-9.17,0-1.51.27-3,.35-4.52a11.37,11.37,0,0,0-3.09-8.82c-2.32-2.22-6.16-2.95-8.85-1.2-0.68.44-1.24,1.54-.54,2M48.64,41.39a1,1,0,0,1,.74-1.45,14.07,14.07,0,0,1,1.94-.06,3.3,3.3,0,0,0,2.43-2,9.75,9.75,0,0,0,.7-3.17,2.61,2.61,0,0,0-.19-1.66,2.42,2.42,0,0,0-1.07-.82c-3.74-1.8-8-2.21-12.13-2.41a1.07,1.07,0,0,0-1.29.71l-1.89,3.59a3.53,3.53,0,0,0-.48,1.32,3.53,3.53,0,0,0,.28,1.42l2.25,6.56c0.9,2.63,2,5.47,4.35,6.9a46.4,46.4,0,0,1,6.39-8.52c-0.61-.36-1.55.1-2-0.43M57,15.91c-0.2-1.53,1.39-2.7,2.88-3.12A9.75,9.75,0,0,1,72.31,21.5,5.92,5.92,0,0,0,71,15.67a13,13,0,0,0-5.26-3.32A26.43,26.43,0,0,0,53.2,10.53,18.53,18.53,0,0,0,41.9,16c2.13-.33,4.38-0.66,6.4.1s3.66,3,3,5a1.9,1.9,0,0,0,1,2.07,7.55,7.55,0,0,0,2.33.75,13.88,13.88,0,0,1,6.26,3.34,8.51,8.51,0,0,0,3.06,2.3A3.4,3.4,0,0,0,68,26.14c-0.19-1.91-2-3.22-3.57-4.27L59.14,18.4c-0.94-.62-2-1.37-2.12-2.48M37.41,76.38L41,83.12a4.82,4.82,0,0,0,1.38,1.83,4.83,4.83,0,0,0,2.61.59l14,0.47a34.77,34.77,0,0,0-2.35-7.1c-0.26-.57-0.86-1.24-1.39-0.9-1.54,1-3.59.26-5.18-.65s-3.28-2-5.09-1.75A10.52,10.52,0,0,1,37,74.14c-2.21-1.63-3.36-4.86-2-7.28a0.6,0.6,0,0,0-.58-0.77,1.72,1.72,0,0,0-1,.47A7.94,7.94,0,0,0,31,69a2.71,2.71,0,0,0,.35,3.22,2.49,2.49,0,0,1-.13,3.68c1.35,1,3-1.56,4.58-1.22a2.82,2.82,0,0,1,1.65,1.68M41,57.67l-3.41,4a0.64,0.64,0,0,0,.4,1.2L48.31,64.6c1.9,0.31,3.94.6,5.68-.23s2.81-3.28,1.57-4.75c-0.67-.8.1-2.13,1.12-2.34a3.9,3.9,0,0,1,2.89.93,13.6,13.6,0,0,0-3-9.08,12.83,12.83,0,0,1-2.18-3,2.7,2.7,0,0,1,.76-3.32c0.52-.31.11-1.23-0.49-1.3a2.16,2.16,0,0,0-1.59.78,39.06,39.06,0,0,0-6.86,8.41,0.77,0.77,0,0,0,.45,1.3,18.65,18.65,0,0,0,3.69,1.34c1,0.25,2.13.49,2.66,1.36,0.73,1.2-.14,2.73-1.1,3.77A19.65,19.65,0,0,1,47.52,62,7,7,0,0,1,44.1,63.2a3.1,3.1,0,0,1-3-1.77A4.73,4.73,0,0,1,41,59.56L41,57.67M79.74,24.39A4.08,4.08,0,0,1,78.33,22c0-1,1-2,1.84-1.47a40.94,40.94,0,0,0-8.33-6.63,13.65,13.65,0,0,1,1,13.2,4.64,4.64,0,0,0,.93,4.7,25.4,25.4,0,0,0,3.8,3.32,7.13,7.13,0,0,1,2.77,4.1l7-5a1.22,1.22,0,0,0,.53-0.6,1.24,1.24,0,0,0-.48-1.08l-7.7-8.08M55,8.5A43.61,43.61,0,0,0,22.69,19.07,32.27,32.27,0,0,1,29.25,18a6.59,6.59,0,0,1,3.5.51c2.3,1.24,2.58,4.6,1.39,6.93A9.85,9.85,0,0,0,33,27.84a1.89,1.89,0,0,0,1,2.21,5.64,5.64,0,0,0,2.51-1.12,1.94,1.94,0,0,0,.41-2.49,6.27,6.27,0,0,1,1.38-8.72,10.27,10.27,0,0,0,2.28-2.81C43.76,10.51,49.69,9.33,55,8.5m4.44,53.2c-0.1-.33-0.47-0.73-0.71-0.48a6.83,6.83,0,0,1-4.43,5.9c-2.12.75-4.46,0.38-6.68,0l-8.12-1.37a3.12,3.12,0,0,0-3.33,3.06,4.67,4.67,0,0,0,2.72,4,9.73,9.73,0,0,0,5,.76,0.57,0.57,0,0,0,.57-0.3c0.39-1.54,2.14-2.35,3.72-2.45s3.18,0.31,4.76.2a7.3,7.3,0,0,0,6.48-9.37M27.21,74.14a0.91,0.91,0,0,0,.68-1,2.15,2.15,0,0,0-.71-1.17,33.26,33.26,0,0,0-3.09-2.37,5.74,5.74,0,0,1-2.26-3.08,2.71,2.71,0,0,1,1.56-3.19c0.69-.21.45-1.25,0.08-1.87L19.07,54.1a16,16,0,0,0-3.77,4.46,4.13,4.13,0,0,0-.69,2.21,4.52,4.52,0,0,0,.63,1.81,51.34,51.34,0,0,0,4.35,6.87,15.36,15.36,0,0,0,3.22,3.39,6.45,6.45,0,0,0,4.4,1.31M72.16,37.63A3.75,3.75,0,0,0,72,39.18c0.3,1.56,2.27,2.05,3.39,3.17a6.14,6.14,0,0,1,1.35,4.5,13.24,13.24,0,0,0,.37,4.78,1.25,1.25,0,0,0,.31.51,1.35,1.35,0,0,0,.85.25,12.12,12.12,0,0,0,4.87-.77,1.25,1.25,0,0,0,.69-0.47,1.28,1.28,0,0,0-.22-1.24,13.44,13.44,0,0,0-2.51-3,14.23,14.23,0,0,1-2.12-2,2.84,2.84,0,0,1-.5-2.75A5.05,5.05,0,0,0,77.44,37a17.54,17.54,0,0,0-4.36-3.33l-0.93,4m-37.35.81c0-.86.23-1.72,0.19-2.58a2.49,2.49,0,0,0-1.18-2.16A76.81,76.81,0,0,0,30,41.87c-0.61,1.52-1.15,3.29-.4,4.75a4.88,4.88,0,0,0,2.78,2.1,12.42,12.42,0,0,0,4.3.77,3.43,3.43,0,0,0,2.14-.55,1.44,1.44,0,0,0,.35-2c-2.17-2.45-4.48-5.25-4.36-8.52m8.67-15.75a7.36,7.36,0,0,1-3.24-2.91A1.11,1.11,0,0,0,39.5,19a0.81,0.81,0,0,0-.4.12,4.06,4.06,0,0,0-1.8,4.11,11.91,11.91,0,0,0,1.81,4.39,1.48,1.48,0,0,0,1.14.94A33,33,0,0,1,54,31a9.49,9.49,0,0,0-1.84-2.7A19,19,0,0,0,48,25.36l-4.54-2.67M64.12,65.57a2.18,2.18,0,0,1,.45-1.41,1.23,1.23,0,0,1,1.36-.39,2.81,2.81,0,0,0,1.12.57,1.14,1.14,0,0,0,.81-1,18.56,18.56,0,0,0-.26-10,1.17,1.17,0,0,0-.88-1,11.51,11.51,0,0,1-3.86-.7,23,23,0,0,1-3.16-1.53,19.29,19.29,0,0,1,2.2,9.06,8.37,8.37,0,0,0,.89,3.27l1.33,3.12M17.86,50.06c-0.31-2.72.89-5.45,0.51-8.15a3.71,3.71,0,0,0-1-2.26A4.2,4.2,0,0,0,13.67,39a0.82,0.82,0,0,0-.74.52,0.89,0.89,0,0,0,.14.51c1.38,2.81.3,6.13-.15,9.23a22.42,22.42,0,0,0,.28,8,0.34,0.34,0,0,0,.43.09,16.37,16.37,0,0,1,3.86-4.89c0.66-.56.46-1.59,0.37-2.45m8.47,26.82c-4.23-.51-7.92-3-11.42-5.46,4.19,7.17,11,12.53,18.44,16.2,0.3,0.15.78,0.21,0.85-.11a15,15,0,0,1-6-9.55c-0.13-.78-1.14-1-1.92-1.07M82,40.8a2.72,2.72,0,0,0-1,1.14,2.48,2.48,0,0,0,.78,2.3,11.31,11.31,0,0,0,4.38,3.1c0.65-2,1.8-3.78,2.61-5.71a8,8,0,0,0,.44-6.1Q85.48,38.06,82,40.8M19.16,37.5a0.59,0.59,0,0,0,.66.21,0.52,0.52,0,0,0,.18-0.3c0.54-1.88-.25-3.86-1.17-5.59s-2-3.45-2.12-5.4c-0.19-.26-0.59,0-0.77.28a41.66,41.66,0,0,0-5.07,10,2.54,2.54,0,0,0,1.7-.33,6.54,6.54,0,0,1,6.59,1.13M81.79,70.65c2.56-3.6,5.2-7.4,5.69-11.79a26.14,26.14,0,0,0,.09-3.23,25.32,25.32,0,0,0-.17-3.17,0.93,0.93,0,0,0-.27-0.63,0.34,0.34,0,0,0-.54.17C86.35,56.77,83.2,60.8,81,65.06a0.78,0.78,0,0,0-.12.6,13.5,13.5,0,0,1,.87,5M25.8,60.5a1.74,1.74,0,0,0,.81.11q2.43-.07,4.86-0.22a1.51,1.51,0,0,0-1-.93,7,7,0,0,1-3.23-3.13c-0.58-1.14-.87-2.47-1.81-3.33a3,3,0,0,0-3.46-.37,0.82,0.82,0,0,0-.33.29,1,1,0,0,0,.16.91l3.36,5.91a1.75,1.75,0,0,0,.68.77m49.93-8.91c-1.24-2.07.22-4.87-.68-7.1a7.15,7.15,0,0,0-3.26-3.06A0.82,0.82,0,0,0,71,41.27l0.34,4.54c0.14,1.81.36,3.8,1.7,5a7.2,7.2,0,0,0,1.79,1.08,1,1,0,0,0,.61.14,0.35,0.35,0,0,0,.28-0.47m1.74,3.24a0.9,0.9,0,0,0-.19.6,9.64,9.64,0,0,0,2.29,6.82,57.23,57.23,0,0,0,4.49-8.57l-6,.95a1,1,0,0,0-.54.21M59.41,76.56a2.44,2.44,0,0,0-.21,4.32,10.22,10.22,0,0,1,6.18-3.28,0.93,0.93,0,0,0,.71-0.93,2.72,2.72,0,0,0-.36-1.21l-0.6-1.26a2.1,2.1,0,0,0-.59-0.84,0.72,0.72,0,0,0-.94,0,12.58,12.58,0,0,1-4.2,3.16M10.76,59.36a25.79,25.79,0,0,1,0-15.08,3.87,3.87,0,0,0-.89-3.73,41.18,41.18,0,0,0,2.48,26.31c0.35-2.55-.81-5-1.57-7.5m64.56,9.28a1.16,1.16,0,0,0-1.3-.21,7.74,7.74,0,0,1-4-.16c-0.8-.25-1.78-0.6-2.39,0-0.1,1.47-.07,3.21,1.13,4.06a3.32,3.32,0,0,0,3.3,0,6.61,6.61,0,0,0,3.27-3.64m3-1.16a9.27,9.27,0,0,1-4.75,7.23,5.91,5.91,0,0,1-5.8.2,0.53,0.53,0,0,0-.67-0.07,0.49,0.49,0,0,0,0,.4,3.53,3.53,0,0,0,.51,1.42,1.21,1.21,0,0,0,1.32.5c1.37-.52,2.94.09,4.37-0.26a6.78,6.78,0,0,0,3.06-2.16,8.8,8.8,0,0,0,2.42-3.5,8.76,8.76,0,0,0,.16-2.89c0-.4-0.21-0.93-0.6-0.86M48.68,59.1a0.81,0.81,0,0,0-.37-0.65,14.21,14.21,0,0,0-3.65-2.31A1.08,1.08,0,0,0,43,57.19,10.67,10.67,0,0,0,42.73,60c0,0.78.31,1.74,1.08,1.83a1.68,1.68,0,0,0,.77-0.15,14.49,14.49,0,0,0,3.73-2.08,0.81,0.81,0,0,0,.37-0.48M69.8,53.24a30.86,30.86,0,0,1,.92,5.24A15.46,15.46,0,0,1,70,64.21a1.83,1.83,0,0,0-.15.9,0.59,0.59,0,0,0,.65.5A12.5,12.5,0,0,0,73,62.3c0.55-.91,1.09-2.08.5-3a26.89,26.89,0,0,1-3.08-6.05l-0.63-.06M31.26,65l-4.63-.56c-1-.12-2.33-0.07-2.69.89S24.4,67,25.13,67.56a20.37,20.37,0,0,0,3.06,1.91A9.75,9.75,0,0,1,31.26,65m35.17-15.6a15,15,0,0,0-6.87-6.23,0.86,0.86,0,0,0-.9,0,0.84,0.84,0,0,0,0,1,9.07,9.07,0,0,0,7.79,5.3m2.37-1.47-0.89-3.05a5.32,5.32,0,0,0-.7-1.67c-1.12-1.55-3.42-1.44-5.32-1.17a1.49,1.49,0,0,0,.9.9,12.66,12.66,0,0,1,5.8,6.91,1.78,1.78,0,0,0,.21-1.91m-7,37.1a2,2,0,0,0,1.82-.56,9.43,9.43,0,0,0,2.79-3.6,0.69,0.69,0,0,0,0-.79A0.68,0.68,0,0,0,65.78,80a8.51,8.51,0,0,0-3.55,1.63A3.22,3.22,0,0,0,61,83.24,1.47,1.47,0,0,0,61.77,85M46,53.52a2.05,2.05,0,0,0-1-.17,0.7,0.7,0,0,0-.64.64,23.07,23.07,0,0,1,5.76,3.63,3,3,0,0,0,1.14-.81,1,1,0,0,0,0-1.3,1.52,1.52,0,0,0-.61-0.33L46,53.52M58.9,73.77a12,12,0,0,0-7.58,1.07C51,75,51.4,75.48,51.77,75.56a8.47,8.47,0,0,0,7.13-1.79M71,79.49l-3,.21A8.64,8.64,0,0,1,64.89,85c1.14,0.46,2.26-.62,3-1.58L71,79.49m-12.11-39a2.91,2.91,0,0,0,1.75-.31,8.47,8.47,0,0,1,6,.1,2.05,2.05,0,0,0,1.64.22c-1.32-1.59-3.63-1.86-5.7-1.85a6.16,6.16,0,0,0-2.19.3,2.34,2.34,0,0,0-1.49,1.53M38.1,30.41c0-.46-0.68-0.55-1.13-0.42a2.55,2.55,0,0,0-1.8,1.66,1.52,1.52,0,0,0,1.2,1.9A13.13,13.13,0,0,0,38,30.77a0.83,0.83,0,0,0,.09-0.37m23.19,36a7,7,0,0,1-2.19,4,0.56,0.56,0,0,0-.27.61,0.49,0.49,0,0,0,.5.17A3.17,3.17,0,0,0,62,67.33a1.45,1.45,0,0,0-.67-0.95m11.93-1.17c0,0.59.85,0.69,1.42,0.58a1.32,1.32,0,0,0,1.11-.66,1.3,1.3,0,0,0-.06-0.77l-0.63-2.22-1.64,2.54a1,1,0,0,0-.21.52M36.12,39.43l0.28,0.95A4.49,4.49,0,0,0,38,43.16a16.87,16.87,0,0,0-1.39-4.5,0.34,0.34,0,0,0-.57.07,1,1,0,0,0,0,.7M64.78,72.22A1.28,1.28,0,0,0,65,71a0.42,0.42,0,0,0-.59,0,1.24,1.24,0,0,0,.27,1.17M64,66.77a0.68,0.68,0,0,0,.33.74,0.83,0.83,0,0,0,0-1.23c-0.2-.14-0.33.25-0.26,0.48m-48.27,2a0.61,0.61,0,0,0-.52.08,3.6,3.6,0,0,0,.75,1,0.94,0.94,0,0,0-.25-1Z"/></g></svg>